<?xml version="1.0" encoding="UTF-8" ?>
<!DOCTYPE svg PUBLIC "-//W3C//DTD SVG 1.1//EN" "http://www.w3.org/Graphics/SVG/1.1/DTD/svg11.dtd">
<svg width="2835pt" height="2835pt" viewBox="0 0 2835 2835" version="1.1" xmlns="http://www.w3.org/2000/svg">
<g id="#12125bfe">
<path fill="#12125b" opacity="1.00" d=" M 1207.94 108.11 C 1346.27 104.82 1484.65 107.80 1623.01 106.62 C 1631.92 106.41 1642.17 107.48 1648.55 114.46 C 1653.78 119.68 1654.71 127.48 1655.31 134.49 C 1655.98 216.87 1655.38 299.25 1655.71 381.63 C 1739.79 401.18 1821.48 430.82 1898.63 469.53 C 1952.39 405.67 2005.34 341.12 2060.02 278.04 C 2068.89 268.01 2085.75 267.50 2095.52 276.50 C 2201.06 365.29 2306.84 453.81 2412.39 542.60 C 2418.10 547.24 2424.65 552.26 2426.03 559.98 C 2429.01 568.80 2425.39 578.65 2419.33 585.30 C 2367.09 648.90 2313.08 711.01 2261.02 774.75 C 2313.05 843.65 2356.51 918.91 2390.81 998.12 C 2473.46 983.80 2556.02 968.96 2638.66 954.62 C 2648.52 954.35 2659.23 959.35 2662.97 968.98 C 2666.04 980.22 2667.54 991.80 2669.70 1003.23 C 2692.82 1133.94 2716.34 1264.59 2738.45 1395.47 C 2738.15 1402.91 2736.01 1411.05 2729.83 1415.83 C 2724.72 1420.42 2717.57 1420.77 2711.21 1422.28 C 2631.92 1435.53 2552.97 1450.68 2473.66 1463.75 C 2467.28 1550.17 2452.21 1635.98 2427.92 1719.18 C 2496.55 1758.39 2564.69 1798.45 2633.42 1837.50 C 2640.00 1841.30 2647.52 1844.62 2651.59 1851.43 C 2656.32 1859.20 2656.19 1868.98 2652.09 1877.00 C 2583.26 2000.69 2512.42 2123.27 2439.79 2244.77 C 2433.47 2257.21 2416.87 2260.39 2405.18 2253.94 C 2334.16 2211.39 2262.38 2170.10 2190.33 2129.32 C 2131.76 2192.53 2064.69 2247.55 1992.88 2295.05 C 2017.66 2364.67 2043.42 2433.94 2068.56 2503.43 C 2072.31 2514.99 2077.70 2526.10 2079.82 2538.14 C 2079.43 2544.30 2078.01 2550.95 2073.49 2555.49 C 2068.63 2560.85 2061.36 2562.46 2054.87 2564.94 C 1929.99 2610.46 1805.08 2655.90 1680.13 2701.23 C 1672.86 2703.88 1665.63 2706.77 1657.98 2708.11 C 1647.94 2708.44 1637.40 2702.92 1633.80 2693.15 C 1604.78 2614.73 1576.96 2535.86 1547.69 2457.53 C 1461.88 2468.41 1374.84 2467.31 1288.95 2457.90 C 1260.80 2536.30 1231.76 2614.39 1203.84 2692.87 C 1199.98 2702.60 1189.55 2708.79 1179.22 2707.81 C 1169.24 2705.99 1159.94 2701.84 1150.39 2698.62 C 1024.27 2653.41 898.57 2607.01 772.54 2561.54 C 759.52 2556.63 754.53 2540.10 759.91 2527.90 C 787.73 2450.26 816.31 2372.87 844.37 2295.31 C 772.23 2247.77 705.91 2191.61 646.15 2129.26 C 574.38 2170.83 502.59 2212.36 430.65 2253.64 C 419.33 2259.97 403.14 2257.12 396.50 2245.42 C 325.35 2124.03 256.50 2001.30 184.56 1880.38 C 178.03 1869.36 180.24 1853.49 191.38 1846.31 C 262.94 1802.45 335.94 1761.00 409.08 1719.83 C 386.07 1636.28 368.76 1550.79 363.97 1464.12 C 282.81 1449.46 201.45 1435.86 120.40 1420.65 C 111.85 1419.78 103.87 1414.58 100.40 1406.60 C 98.35 1400.39 97.05 1393.74 98.29 1387.23 C 124.07 1257.34 145.12 1126.59 168.37 996.24 C 170.08 987.10 171.29 977.82 173.96 968.89 C 177.76 959.28 188.37 954.54 198.19 954.79 C 280.76 969.02 363.37 983.09 445.74 998.50 C 481.34 919.55 524.31 843.75 575.94 774.13 C 523.05 710.69 469.68 647.64 416.73 584.25 C 407.40 574.14 407.69 556.47 418.67 547.65 C 526.39 457.35 633.94 366.85 741.85 276.80 C 751.69 267.27 768.92 267.53 778.01 277.98 C 831.92 341.64 884.79 406.17 939.04 469.55 C 1015.82 429.87 1098.20 402.09 1181.84 380.89 C 1180.87 304.27 1182.42 227.64 1181.21 151.02 C 1181.21 140.82 1179.62 129.91 1184.47 120.48 C 1189.06 111.95 1198.78 108.56 1207.94 108.11 M 1205.04 132.18 C 1206.61 221.14 1204.85 310.12 1206.01 399.08 C 1111.72 422.12 1018.72 453.15 933.30 499.80 C 874.71 431.52 817.64 361.97 759.58 293.24 C 650.62 384.16 541.95 475.45 433.32 566.77 C 491.01 635.63 548.86 704.36 606.54 773.23 C 546.88 850.36 499.36 936.19 459.86 1025.17 C 371.92 1008.70 283.76 993.40 195.55 978.50 C 171.12 1114.75 149.25 1251.47 122.34 1387.27 C 121.83 1390.45 121.93 1393.69 121.97 1396.92 C 210.20 1413.38 298.74 1428.14 387.04 1444.24 C 390.56 1541.78 409.62 1638.15 436.95 1731.67 C 358.81 1775.58 280.79 1819.75 204.26 1866.42 C 276.39 1988.13 345.91 2111.36 417.24 2233.54 C 495.33 2189.14 572.88 2143.79 650.73 2098.97 C 716.74 2170.02 791.07 2233.66 873.16 2285.46 C 842.86 2370.19 811.54 2454.56 781.09 2539.24 C 911.44 2586.34 1041.48 2634.30 1171.96 2681.03 C 1175.16 2682.22 1178.40 2683.34 1181.72 2684.21 C 1211.50 2599.89 1242.86 2516.12 1272.94 2431.91 C 1369.19 2443.83 1467.10 2445.17 1563.23 2431.37 C 1595.22 2515.36 1624.73 2600.28 1656.09 2684.52 C 1789.47 2636.22 1922.80 2587.76 2056.03 2539.05 C 2025.68 2454.34 1993.99 2370.13 1964.16 2285.24 C 2045.66 2233.28 2120.95 2171.21 2185.41 2099.08 C 2263.69 2143.01 2341.41 2187.95 2418.53 2233.91 C 2491.25 2111.63 2562.68 1988.58 2631.75 1864.20 C 2554.18 1820.09 2477.26 1774.84 2399.71 1730.71 C 2429.25 1637.69 2444.95 1540.72 2451.06 1443.45 C 2539.15 1429.30 2626.75 1412.28 2714.76 1397.66 C 2691.34 1258.64 2666.21 1119.92 2641.76 981.08 C 2641.57 979.63 2641.31 977.90 2639.46 978.56 C 2551.63 993.71 2463.92 1009.61 2376.08 1024.69 C 2338.85 935.31 2290.38 850.49 2230.59 774.27 C 2287.17 704.10 2346.63 636.32 2403.66 566.53 C 2295.39 475.44 2186.77 384.75 2078.65 293.48 C 2019.18 361.03 1962.96 431.38 1904.22 499.56 C 1818.48 454.24 1726.46 421.10 1631.82 400.10 C 1631.10 310.30 1632.21 220.50 1631.11 130.70 C 1489.09 131.89 1347.04 128.87 1205.04 132.18 Z" />
<path fill="#12125b" opacity="1.00" d=" M 1275.34 724.52 C 1296.89 722.81 1318.80 722.73 1340.07 727.03 C 1354.56 730.63 1368.59 736.63 1380.75 745.37 C 1390.46 752.57 1396.91 764.59 1409.17 767.99 C 1416.92 770.85 1426.01 769.53 1432.78 764.89 C 1441.42 757.58 1448.11 748.00 1457.94 742.11 C 1477.48 729.47 1500.81 723.46 1524.00 723.98 C 1556.23 723.17 1588.56 726.22 1620.08 733.02 C 1678.81 746.86 1735.56 775.43 1775.69 821.31 C 1795.55 840.26 1808.02 865.08 1820.93 888.91 C 1823.66 894.07 1827.67 899.45 1833.88 900.35 C 1886.82 907.99 1935.50 936.42 1972.00 975.00 C 1984.64 987.12 1996.22 1000.47 2005.58 1015.32 C 2031.82 1057.13 2048.11 1105.16 2052.43 1154.35 C 2056.02 1189.88 2054.14 1225.86 2047.83 1260.98 C 2041.11 1312.22 2021.50 1360.44 2003.34 1408.44 C 2000.69 1414.75 2000.47 1422.41 2004.86 1428.03 C 2036.73 1469.10 2058.16 1520.92 2053.43 1573.66 C 2049.19 1618.70 2025.93 1661.34 1991.52 1690.51 C 1972.72 1707.47 1950.50 1720.22 1927.32 1730.19 C 1917.54 1734.29 1915.25 1747.01 1920.21 1755.67 C 1935.68 1788.56 1944.78 1826.03 1937.01 1862.20 C 1931.05 1883.47 1920.62 1904.07 1903.96 1918.96 C 1880.03 1940.26 1849.60 1953.33 1818.63 1960.48 C 1794.61 1965.14 1770.17 1966.95 1746.04 1970.85 C 1740.13 1971.48 1735.11 1975.38 1732.36 1980.53 C 1721.07 2002.31 1710.56 2024.85 1694.79 2043.87 C 1672.05 2070.50 1640.51 2088.09 1607.84 2099.64 C 1584.18 2108.17 1559.06 2112.07 1533.99 2112.86 C 1498.25 2115.08 1463.87 2097.64 1438.78 2073.18 C 1433.43 2068.84 1430.09 2061.83 1423.19 2059.61 C 1416.43 2056.94 1408.31 2059.17 1403.50 2064.50 C 1381.60 2088.80 1352.17 2108.66 1318.98 2112.06 C 1275.56 2114.53 1230.72 2113.41 1189.43 2098.34 C 1150.33 2083.97 1117.93 2051.30 1106.00 2011.13 C 1104.60 2004.92 1099.78 1999.36 1093.27 1998.44 C 1074.61 1995.04 1055.70 1992.63 1037.43 1987.36 C 1005.11 1978.53 973.07 1964.87 948.48 1941.52 C 942.36 1935.30 935.89 1929.44 930.05 1922.96 C 903.66 1891.45 891.53 1848.76 897.32 1808.06 C 900.65 1785.18 909.31 1763.20 910.48 1739.96 C 910.30 1735.14 909.18 1729.88 905.36 1726.59 C 900.84 1722.63 894.68 1721.82 889.33 1719.51 C 846.45 1702.37 813.90 1665.09 795.98 1623.22 C 780.86 1589.91 780.37 1551.74 787.57 1516.39 C 794.23 1488.21 806.38 1461.40 822.49 1437.36 C 826.17 1431.56 832.00 1426.65 832.55 1419.36 C 833.08 1411.97 829.25 1405.20 826.63 1398.53 C 806.76 1348.77 789.88 1297.31 783.30 1243.93 C 777.93 1203.18 778.23 1161.49 786.33 1121.12 C 796.99 1060.91 828.06 1004.49 873.14 963.21 C 908.27 930.80 952.61 908.07 999.81 899.98 C 1005.14 899.09 1008.62 894.60 1011.56 890.47 C 1014.85 885.96 1018.46 881.62 1020.74 876.47 C 1029.88 856.82 1042.04 838.61 1056.50 822.48 C 1063.68 815.34 1070.81 808.15 1077.99 801.00 C 1113.05 769.93 1156.05 748.67 1201.00 736.12 C 1225.25 729.46 1250.37 726.86 1275.34 724.52 M 1120.13 798.21 C 1077.13 825.76 1040.69 866.82 1026.79 916.73 C 998.54 921.41 969.74 926.74 944.18 940.27 C 894.37 965.06 855.24 1008.48 831.47 1058.39 C 814.69 1093.66 806.12 1132.45 803.30 1171.26 C 798.92 1240.29 815.21 1309.04 840.05 1373.09 C 843.71 1383.50 857.90 1387.35 866.37 1380.37 C 895.80 1356.96 928.95 1337.46 965.35 1327.27 C 981.79 1322.43 999.00 1321.27 1015.98 1320.15 C 1077.85 1319.09 1140.00 1338.54 1190.19 1374.78 C 1195.44 1378.83 1201.10 1383.11 1203.53 1389.53 C 1206.41 1399.36 1192.67 1409.16 1184.68 1402.38 C 1142.52 1366.10 1086.66 1348.13 1031.60 1346.45 C 1021.06 1344.63 1010.53 1347.28 999.97 1346.93 C 944.71 1354.31 895.86 1386.34 857.49 1425.47 C 826.39 1457.70 808.90 1501.73 806.20 1546.20 C 803.75 1590.91 818.58 1637.46 850.53 1669.58 C 877.62 1697.44 914.15 1713.44 950.63 1725.04 C 937.76 1746.58 925.11 1768.85 919.66 1793.59 C 915.12 1812.37 914.09 1832.23 918.98 1851.06 C 926.98 1888.75 953.40 1920.13 985.03 1940.94 C 1022.59 1965.71 1068.34 1976.48 1112.97 1976.15 C 1119.79 2002.88 1130.08 2030.14 1150.58 2049.48 C 1181.87 2077.00 1224.37 2087.02 1265.00 2089.25 C 1273.47 2089.83 1281.81 2087.04 1290.27 2088.14 C 1303.94 2090.15 1317.99 2089.51 1331.49 2086.55 C 1358.78 2080.73 1381.66 2060.71 1393.97 2036.06 C 1400.34 2022.99 1403.32 2008.47 1404.18 1994.03 C 1404.26 1630.69 1404.22 1267.34 1404.21 904.00 C 1404.15 896.96 1404.44 889.89 1403.22 882.93 C 1403.59 854.20 1399.92 825.24 1391.11 797.82 C 1384.89 778.40 1370.37 761.56 1351.39 753.74 C 1335.23 747.57 1317.69 748.39 1300.79 747.22 C 1237.60 746.60 1173.13 762.95 1120.13 798.21 M 1492.73 750.77 C 1470.03 755.31 1451.71 773.43 1443.89 794.82 C 1435.40 818.94 1431.78 844.55 1430.76 870.00 C 1431.58 878.05 1429.48 885.95 1429.80 893.99 C 1429.69 1259.66 1429.77 1625.32 1429.75 1990.99 C 1430.94 2021.10 1442.73 2052.96 1468.38 2070.58 C 1485.65 2083.38 1507.38 2089.14 1528.66 2089.44 C 1553.62 2090.51 1578.32 2084.21 1602.13 2077.05 C 1644.59 2062.95 1682.07 2033.38 1704.25 1994.36 C 1706.91 1989.39 1710.06 1984.47 1710.87 1978.78 C 1711.46 1971.85 1707.77 1964.57 1701.06 1962.04 C 1665.64 1945.35 1631.00 1923.00 1609.56 1889.39 C 1584.77 1850.94 1573.89 1804.49 1576.16 1758.99 C 1574.84 1749.17 1588.35 1744.36 1595.50 1749.38 C 1600.66 1752.48 1599.50 1759.25 1600.50 1764.34 C 1603.03 1791.08 1604.20 1818.49 1614.29 1843.77 C 1630.28 1886.71 1666.71 1919.50 1707.88 1937.99 C 1718.81 1942.63 1730.42 1948.31 1742.63 1945.65 C 1749.05 1943.65 1755.44 1947.11 1761.99 1946.25 C 1789.56 1944.40 1816.72 1937.97 1842.67 1928.59 C 1871.47 1918.39 1898.38 1898.14 1910.13 1869.20 C 1921.04 1839.84 1916.25 1807.32 1906.67 1778.29 C 1900.83 1759.81 1892.24 1742.39 1884.04 1724.89 C 1901.12 1719.47 1917.94 1713.07 1933.83 1704.74 C 1964.71 1689.29 1992.69 1666.24 2009.61 1635.74 C 2021.30 1616.46 2027.40 1594.28 2030.05 1572.02 C 2030.74 1566.64 2029.76 1561.30 2029.03 1556.00 C 2029.66 1551.01 2030.68 1546.01 2030.15 1540.96 C 2027.00 1510.12 2017.25 1479.74 2000.32 1453.67 C 1996.46 1447.72 1988.65 1444.56 1981.82 1446.76 C 1974.65 1447.92 1971.63 1455.24 1966.55 1459.50 C 1924.59 1504.39 1865.24 1529.56 1805.39 1539.40 C 1779.25 1543.38 1752.83 1545.61 1726.41 1544.62 C 1716.89 1542.22 1714.99 1527.11 1722.82 1521.80 C 1742.71 1518.41 1762.95 1518.27 1782.98 1516.27 C 1806.10 1514.88 1828.65 1509.18 1850.82 1502.76 C 1907.21 1485.52 1958.42 1445.39 1980.67 1389.74 C 2011.40 1344.79 2021.43 1289.91 2029.13 1237.04 C 2036.66 1169.41 2026.04 1098.47 1992.17 1038.81 C 1975.11 1008.83 1951.85 982.50 1924.48 961.55 C 1890.65 935.71 1848.92 922.17 1807.10 916.60 C 1793.90 869.81 1761.10 830.75 1721.57 803.46 C 1677.25 771.82 1623.93 754.15 1569.99 748.79 C 1559.71 747.15 1549.29 748.55 1539.02 746.87 C 1523.62 748.39 1507.95 747.23 1492.73 750.77 Z" />
<path fill="#12125b" opacity="1.00" d=" M 1244.51 1005.39 C 1250.96 1004.58 1257.31 1010.13 1258.74 1016.27 C 1258.98 1039.62 1249.96 1062.44 1236.03 1080.99 C 1214.12 1111.00 1179.53 1129.12 1144.15 1138.17 C 1121.18 1143.59 1097.54 1146.02 1073.97 1145.80 C 1063.79 1146.39 1056.74 1130.99 1065.37 1124.36 C 1073.65 1118.03 1084.94 1121.41 1094.51 1119.60 C 1131.37 1117.39 1169.71 1107.93 1198.20 1083.21 C 1210.33 1072.96 1219.53 1059.48 1225.93 1045.02 C 1230.53 1034.68 1231.01 1023.03 1235.55 1012.68 C 1236.96 1008.80 1240.72 1006.52 1244.51 1005.39 Z" />
<path fill="#12125b" opacity="1.00" d=" M 1643.53 1062.44 C 1648.56 1061.66 1654.57 1064.79 1656.21 1069.78 C 1660.42 1091.74 1664.19 1114.32 1674.77 1134.31 C 1683.59 1149.56 1693.95 1164.08 1706.95 1176.07 C 1745.50 1213.63 1799.73 1231.10 1852.66 1233.49 C 1862.46 1235.54 1874.09 1231.85 1882.58 1238.41 C 1891.55 1245.21 1883.71 1261.45 1873.03 1259.82 C 1811.33 1260.18 1747.02 1244.38 1698.83 1204.17 C 1665.35 1176.31 1640.03 1136.91 1633.69 1093.35 C 1633.33 1085.64 1630.29 1077.38 1633.89 1070.03 C 1635.60 1066.05 1639.59 1063.74 1643.53 1062.44 Z" />
<path fill="#12125b" opacity="1.00" d=" M 1012.50 1577.54 C 1037.17 1575.71 1060.35 1586.59 1082.20 1596.71 C 1117.52 1612.68 1146.38 1640.94 1165.93 1674.14 C 1190.22 1715.60 1202.14 1764.03 1200.83 1812.00 C 1200.40 1817.34 1202.55 1824.64 1196.83 1827.88 C 1190.55 1831.83 1178.22 1830.70 1177.34 1821.76 C 1174.28 1784.00 1170.15 1745.58 1155.77 1710.18 C 1148.82 1694.04 1140.24 1678.48 1129.28 1664.69 C 1110.31 1640.71 1083.85 1623.16 1055.15 1612.96 C 1042.09 1608.55 1028.52 1605.92 1015.09 1602.92 C 1009.31 1601.33 1001.56 1600.04 999.38 1593.56 C 996.48 1585.24 1003.66 1576.22 1012.50 1577.54 Z" />
</g>
<g id="#a1a7adff">
<path fill="#a1a7ad" opacity="1.00" d=" M 1205.04 132.18 C 1347.04 128.87 1489.09 131.89 1631.11 130.70 C 1632.21 220.50 1631.10 310.30 1631.82 400.10 C 1726.46 421.10 1818.48 454.24 1904.22 499.56 C 1962.96 431.38 2019.18 361.03 2078.65 293.48 C 2186.77 384.75 2295.39 475.44 2403.66 566.53 C 2346.63 636.32 2287.17 704.10 2230.59 774.27 C 2290.38 850.49 2338.85 935.31 2376.08 1024.69 C 2463.92 1009.61 2551.63 993.71 2639.46 978.56 C 2641.31 977.90 2641.57 979.63 2641.76 981.08 C 2666.21 1119.92 2691.34 1258.64 2714.76 1397.66 C 2626.75 1412.28 2539.15 1429.30 2451.06 1443.45 C 2444.95 1540.72 2429.25 1637.69 2399.71 1730.71 C 2477.26 1774.84 2554.18 1820.09 2631.75 1864.20 C 2562.68 1988.58 2491.25 2111.63 2418.53 2233.91 C 2341.41 2187.95 2263.69 2143.01 2185.41 2099.08 C 2120.95 2171.21 2045.66 2233.28 1964.16 2285.24 C 1993.99 2370.13 2025.68 2454.34 2056.03 2539.05 C 1922.80 2587.76 1789.47 2636.22 1656.09 2684.52 C 1624.73 2600.28 1595.22 2515.36 1563.23 2431.37 C 1467.10 2445.17 1369.19 2443.83 1272.94 2431.91 C 1242.86 2516.12 1211.50 2599.89 1181.72 2684.21 C 1178.40 2683.34 1175.16 2682.22 1171.96 2681.03 C 1041.48 2634.30 911.44 2586.34 781.09 2539.24 C 811.54 2454.56 842.86 2370.19 873.16 2285.46 C 791.07 2233.66 716.74 2170.02 650.73 2098.97 C 572.88 2143.79 495.33 2189.14 417.24 2233.54 C 345.91 2111.36 276.39 1988.13 204.26 1866.42 C 280.79 1819.75 358.81 1775.58 436.95 1731.67 C 409.62 1638.15 390.56 1541.78 387.04 1444.24 C 298.74 1428.14 210.20 1413.38 121.97 1396.92 C 121.93 1393.69 121.83 1390.45 122.34 1387.27 C 149.25 1251.47 171.12 1114.75 195.55 978.50 C 283.76 993.40 371.92 1008.70 459.86 1025.17 C 499.36 936.19 546.88 850.36 606.54 773.23 C 548.86 704.36 491.01 635.63 433.32 566.77 C 541.95 475.45 650.62 384.16 759.58 293.24 C 817.64 361.97 874.71 431.52 933.30 499.80 C 1018.72 453.15 1111.72 422.12 1206.01 399.08 C 1204.85 310.12 1206.61 221.14 1205.04 132.18 M 1275.34 724.52 C 1250.37 726.86 1225.25 729.46 1201.00 736.12 C 1156.05 748.67 1113.05 769.93 1077.99 801.00 C 1070.81 808.15 1063.68 815.34 1056.50 822.48 C 1042.04 838.61 1029.88 856.82 1020.74 876.47 C 1018.46 881.62 1014.85 885.96 1011.56 890.47 C 1008.62 894.60 1005.14 899.09 999.81 899.98 C 952.61 908.07 908.27 930.80 873.14 963.21 C 828.06 1004.49 796.99 1060.91 786.33 1121.12 C 778.23 1161.49 777.93 1203.18 783.30 1243.93 C 789.88 1297.31 806.76 1348.77 826.63 1398.53 C 829.25 1405.20 833.08 1411.97 832.55 1419.36 C 832.00 1426.65 826.17 1431.56 822.49 1437.36 C 806.38 1461.40 794.23 1488.21 787.57 1516.39 C 780.37 1551.74 780.86 1589.91 795.98 1623.22 C 813.90 1665.09 846.45 1702.37 889.33 1719.51 C 894.68 1721.82 900.84 1722.63 905.36 1726.59 C 909.18 1729.88 910.30 1735.14 910.48 1739.96 C 909.31 1763.20 900.65 1785.18 897.32 1808.06 C 891.53 1848.76 903.66 1891.45 930.05 1922.96 C 935.89 1929.44 942.36 1935.30 948.48 1941.52 C 973.07 1964.87 1005.11 1978.53 1037.43 1987.36 C 1055.70 1992.63 1074.61 1995.04 1093.27 1998.44 C 1099.78 1999.36 1104.60 2004.92 1106.00 2011.13 C 1117.93 2051.30 1150.33 2083.97 1189.43 2098.34 C 1230.72 2113.41 1275.56 2114.53 1318.98 2112.06 C 1352.17 2108.66 1381.60 2088.80 1403.50 2064.50 C 1408.31 2059.17 1416.43 2056.94 1423.19 2059.61 C 1430.09 2061.83 1433.43 2068.84 1438.78 2073.18 C 1463.87 2097.64 1498.25 2115.08 1533.99 2112.86 C 1559.06 2112.07 1584.18 2108.17 1607.84 2099.64 C 1640.51 2088.09 1672.05 2070.50 1694.79 2043.87 C 1710.56 2024.85 1721.07 2002.31 1732.36 1980.53 C 1735.11 1975.38 1740.13 1971.48 1746.04 1970.85 C 1770.17 1966.95 1794.61 1965.14 1818.63 1960.48 C 1849.60 1953.33 1880.03 1940.26 1903.96 1918.96 C 1920.62 1904.07 1931.05 1883.47 1937.01 1862.20 C 1944.78 1826.03 1935.68 1788.56 1920.21 1755.67 C 1915.25 1747.01 1917.54 1734.29 1927.32 1730.19 C 1950.50 1720.22 1972.72 1707.47 1991.52 1690.51 C 2025.93 1661.34 2049.19 1618.70 2053.43 1573.66 C 2058.16 1520.92 2036.73 1469.10 2004.86 1428.03 C 2000.47 1422.41 2000.69 1414.75 2003.34 1408.44 C 2021.50 1360.44 2041.11 1312.22 2047.83 1260.98 C 2054.14 1225.86 2056.02 1189.88 2052.43 1154.35 C 2048.11 1105.16 2031.82 1057.13 2005.58 1015.32 C 1996.22 1000.47 1984.64 987.12 1972.00 975.00 C 1935.50 936.42 1886.82 907.99 1833.88 900.35 C 1827.67 899.45 1823.66 894.07 1820.93 888.91 C 1808.02 865.08 1795.55 840.26 1775.69 821.31 C 1735.56 775.43 1678.81 746.86 1620.08 733.02 C 1588.56 726.22 1556.23 723.17 1524.00 723.98 C 1500.81 723.46 1477.48 729.47 1457.94 742.11 C 1448.11 748.00 1441.42 757.58 1432.78 764.89 C 1426.01 769.53 1416.92 770.85 1409.17 767.99 C 1396.91 764.59 1390.46 752.57 1380.75 745.37 C 1368.59 736.63 1354.56 730.63 1340.07 727.03 C 1318.80 722.73 1296.89 722.81 1275.34 724.52 Z" />
</g>
<g id="#c5c3ecff">
<path fill="#c5c3ec" opacity="1.00" d=" M 1120.13 798.21 C 1173.13 762.95 1237.60 746.60 1300.79 747.22 C 1317.69 748.39 1335.23 747.57 1351.39 753.74 C 1370.37 761.56 1384.89 778.40 1391.11 797.82 C 1399.92 825.24 1403.59 854.20 1403.22 882.93 C 1404.44 889.89 1404.15 896.96 1404.21 904.00 C 1404.22 1267.34 1404.26 1630.69 1404.18 1994.03 C 1403.32 2008.47 1400.34 2022.99 1393.97 2036.06 C 1381.66 2060.71 1358.78 2080.73 1331.49 2086.55 C 1317.99 2089.51 1303.94 2090.15 1290.27 2088.14 C 1281.81 2087.04 1273.47 2089.83 1265.00 2089.25 C 1224.37 2087.02 1181.87 2077.00 1150.58 2049.48 C 1130.08 2030.14 1119.79 2002.88 1112.97 1976.15 C 1068.34 1976.48 1022.59 1965.71 985.03 1940.94 C 953.40 1920.13 926.98 1888.75 918.98 1851.06 C 914.09 1832.23 915.12 1812.37 919.66 1793.59 C 925.11 1768.85 937.76 1746.58 950.63 1725.04 C 914.15 1713.44 877.62 1697.44 850.53 1669.58 C 818.58 1637.46 803.75 1590.91 806.20 1546.20 C 808.90 1501.73 826.39 1457.70 857.49 1425.47 C 895.86 1386.34 944.71 1354.31 999.97 1346.93 C 1010.53 1347.28 1021.06 1344.63 1031.60 1346.45 C 1086.66 1348.13 1142.52 1366.10 1184.68 1402.38 C 1192.67 1409.16 1206.41 1399.36 1203.53 1389.53 C 1201.10 1383.11 1195.44 1378.83 1190.19 1374.78 C 1140.00 1338.54 1077.85 1319.09 1015.98 1320.15 C 999.00 1321.27 981.79 1322.43 965.35 1327.27 C 928.95 1337.46 895.80 1356.96 866.37 1380.37 C 857.90 1387.35 843.71 1383.50 840.05 1373.09 C 815.21 1309.04 798.92 1240.29 803.30 1171.26 C 806.12 1132.45 814.69 1093.66 831.47 1058.39 C 855.24 1008.48 894.37 965.06 944.18 940.27 C 969.74 926.74 998.54 921.41 1026.79 916.73 C 1040.69 866.82 1077.13 825.76 1120.13 798.21 M 1244.51 1005.39 C 1240.72 1006.52 1236.96 1008.80 1235.55 1012.68 C 1231.01 1023.03 1230.53 1034.68 1225.93 1045.02 C 1219.53 1059.48 1210.33 1072.96 1198.20 1083.21 C 1169.71 1107.93 1131.37 1117.39 1094.51 1119.60 C 1084.94 1121.41 1073.65 1118.03 1065.37 1124.36 C 1056.74 1130.99 1063.79 1146.39 1073.97 1145.80 C 1097.54 1146.02 1121.18 1143.59 1144.15 1138.17 C 1179.53 1129.12 1214.12 1111.00 1236.03 1080.99 C 1249.96 1062.44 1258.98 1039.62 1258.74 1016.27 C 1257.31 1010.13 1250.96 1004.58 1244.51 1005.39 M 1012.50 1577.54 C 1003.66 1576.22 996.48 1585.24 999.38 1593.56 C 1001.56 1600.04 1009.31 1601.33 1015.09 1602.92 C 1028.52 1605.92 1042.09 1608.55 1055.15 1612.96 C 1083.85 1623.16 1110.31 1640.71 1129.28 1664.69 C 1140.24 1678.48 1148.82 1694.04 1155.77 1710.18 C 1170.15 1745.58 1174.28 1784.00 1177.34 1821.76 C 1178.22 1830.70 1190.55 1831.83 1196.83 1827.88 C 1202.55 1824.64 1200.40 1817.34 1200.83 1812.00 C 1202.14 1764.03 1190.22 1715.60 1165.93 1674.14 C 1146.38 1640.94 1117.52 1612.68 1082.20 1596.71 C 1060.35 1586.59 1037.17 1575.71 1012.50 1577.54 Z" />
<path fill="#c5c3ec" opacity="1.00" d=" M 1492.73 750.77 C 1507.95 747.23 1523.62 748.39 1539.02 746.87 C 1549.29 748.55 1559.71 747.15 1569.99 748.79 C 1623.93 754.15 1677.25 771.82 1721.57 803.46 C 1761.10 830.75 1793.90 869.81 1807.10 916.60 C 1848.92 922.17 1890.65 935.71 1924.48 961.55 C 1951.85 982.50 1975.11 1008.83 1992.17 1038.81 C 2026.04 1098.47 2036.66 1169.41 2029.13 1237.04 C 2021.43 1289.91 2011.40 1344.79 1980.67 1389.74 C 1958.42 1445.39 1907.21 1485.52 1850.82 1502.76 C 1828.65 1509.18 1806.10 1514.88 1782.98 1516.27 C 1762.95 1518.27 1742.71 1518.41 1722.82 1521.80 C 1714.99 1527.11 1716.89 1542.22 1726.41 1544.62 C 1752.83 1545.61 1779.25 1543.38 1805.39 1539.40 C 1865.24 1529.56 1924.59 1504.39 1966.55 1459.50 C 1971.63 1455.24 1974.65 1447.92 1981.82 1446.76 C 1988.65 1444.56 1996.46 1447.72 2000.32 1453.67 C 2017.25 1479.74 2027.00 1510.12 2030.15 1540.96 C 2030.68 1546.01 2029.66 1551.01 2029.03 1556.00 C 2029.76 1561.30 2030.74 1566.64 2030.05 1572.02 C 2027.40 1594.28 2021.30 1616.46 2009.61 1635.74 C 1992.69 1666.24 1964.71 1689.29 1933.83 1704.74 C 1917.94 1713.07 1901.12 1719.47 1884.04 1724.89 C 1892.24 1742.39 1900.83 1759.81 1906.67 1778.29 C 1916.25 1807.32 1921.04 1839.84 1910.13 1869.20 C 1898.38 1898.14 1871.47 1918.39 1842.67 1928.59 C 1816.72 1937.97 1789.56 1944.40 1761.99 1946.25 C 1755.44 1947.11 1749.05 1943.65 1742.63 1945.65 C 1730.42 1948.31 1718.81 1942.63 1707.88 1937.99 C 1666.71 1919.50 1630.28 1886.71 1614.29 1843.77 C 1604.20 1818.49 1603.03 1791.08 1600.50 1764.34 C 1599.50 1759.25 1600.66 1752.48 1595.50 1749.38 C 1588.35 1744.36 1574.84 1749.17 1576.16 1758.99 C 1573.89 1804.49 1584.77 1850.94 1609.56 1889.39 C 1631.00 1923.00 1665.64 1945.35 1701.06 1962.04 C 1707.77 1964.57 1711.46 1971.85 1710.87 1978.78 C 1710.06 1984.47 1706.91 1989.39 1704.25 1994.36 C 1682.07 2033.38 1644.59 2062.95 1602.13 2077.05 C 1578.32 2084.21 1553.62 2090.51 1528.66 2089.44 C 1507.38 2089.14 1485.65 2083.38 1468.38 2070.58 C 1442.73 2052.96 1430.94 2021.10 1429.75 1990.99 C 1429.77 1625.32 1429.69 1259.66 1429.80 893.99 C 1429.48 885.95 1431.58 878.05 1430.76 870.00 C 1431.78 844.55 1435.40 818.94 1443.89 794.82 C 1451.71 773.43 1470.03 755.31 1492.73 750.77 M 1643.53 1062.44 C 1639.59 1063.74 1635.60 1066.05 1633.89 1070.03 C 1630.29 1077.38 1633.33 1085.64 1633.69 1093.35 C 1640.03 1136.91 1665.35 1176.31 1698.83 1204.17 C 1747.02 1244.38 1811.33 1260.18 1873.03 1259.82 C 1883.71 1261.45 1891.55 1245.21 1882.58 1238.41 C 1874.09 1231.85 1862.46 1235.54 1852.66 1233.49 C 1799.73 1231.10 1745.50 1213.63 1706.95 1176.07 C 1693.95 1164.08 1683.59 1149.56 1674.77 1134.31 C 1664.19 1114.32 1660.42 1091.74 1656.21 1069.78 C 1654.57 1064.79 1648.56 1061.66 1643.53 1062.44 Z" />
</g>
</svg>
